<svg width="21" height="21" viewBox="0 0 21 21" fill="none" xmlns="http://www.w3.org/2000/svg">
<path d="M17.2812 6.78125H13.3437C13.1117 6.78125 12.8891 6.68906 12.725 6.52497C12.5609 6.36087 12.4687 6.13831 12.4687 5.90625V1.96875M17.2812 6.78125V18.1562C17.2812 18.3883 17.1891 18.6109 17.025 18.775C16.8609 18.9391 16.6383 19.0312 16.4062 19.0312H4.59375C4.36169 19.0312 4.13913 18.9391 3.97503 18.775C3.81094 18.6109 3.71875 18.3883 3.71875 18.1562V2.84375C3.71875 2.61169 3.81094 2.38913 3.97503 2.22503C4.13913 2.06094 4.36169 1.96875 4.59375 1.96875H12.4687M17.2812 6.78125L12.4687 1.96875" stroke="#4285F4" stroke-linecap="round" stroke-linejoin="round"/>
<path d="M17.2812 6.78125H13.3437C13.1117 6.78125 12.8891 6.68906 12.725 6.52497C12.5609 6.36087 12.4687 6.13831 12.4687 5.90625V1.96875H4.59375C4.36169 1.96875 4.13913 2.06094 3.97503 2.22503C3.81094 2.38913 3.71875 2.61169 3.71875 2.84375V18.1562C3.71875 18.3883 3.81094 18.6109 3.97503 18.775C4.13913 18.9391 4.36169 19.0312 4.59375 19.0312H16.4062C16.6383 19.0312 16.8609 18.9391 17.025 18.775C17.1891 18.6109 17.2812 18.3883 17.2812 18.1562V6.78125ZM12.4687 1.96875L17.2812 6.78125ZM6.5625 9.625H14.4375ZM6.5625 12.0312H14.4375ZM6.5625 14.4375H11.375Z" fill="#6DA1F7"/>
<path d="M17.2812 6.78125H13.3437C13.1117 6.78125 12.8891 6.68906 12.725 6.52497C12.5609 6.36087 12.4687 6.13831 12.4687 5.90625V1.96875M17.2812 6.78125V18.1562C17.2812 18.3883 17.1891 18.6109 17.025 18.775C16.8609 18.9391 16.6383 19.0312 16.4062 19.0312H4.59375C4.36169 19.0312 4.13913 18.9391 3.97503 18.775C3.81094 18.6109 3.71875 18.3883 3.71875 18.1562V2.84375C3.71875 2.61169 3.81094 2.38913 3.97503 2.22503C4.13913 2.06094 4.36169 1.96875 4.59375 1.96875H12.4687M17.2812 6.78125L12.4687 1.96875M6.5625 9.625H14.4375M6.5625 12.0312H14.4375M6.5625 14.4375H11.375" stroke="#4285F4" stroke-linecap="round" stroke-linejoin="round"/>
</svg>
