<svg width="11" height="11" viewBox="0 0 11 11" fill="none" xmlns="http://www.w3.org/2000/svg">
<path d="M5.4375 3.875C5.31442 3.875 5.21078 3.83281 5.12658 3.74842C5.04219 3.66422 5 3.56058 5 3.4375C5 3.31442 5.04219 3.21078 5.12658 3.12658C5.21078 3.04219 5.31442 3 5.4375 3C5.56058 3 5.66422 3.04219 5.74842 3.12658C5.83261 3.21097 5.87481 3.31461 5.875 3.4375C5.87519 3.56039 5.833 3.66403 5.74842 3.74842C5.66422 3.83281 5.56058 3.875 5.4375 3.875ZM5.43808 7.66667C5.35719 7.66667 5.28826 7.63828 5.23129 7.5815C5.17432 7.52492 5.14583 7.45608 5.14583 7.375V4.97458C5.14583 4.89331 5.17413 4.82437 5.23071 4.76779C5.28729 4.71101 5.35603 4.68262 5.43692 4.68262C5.51781 4.68262 5.58674 4.71101 5.64371 4.76779C5.70068 4.82457 5.72917 4.8934 5.72917 4.97429V7.375C5.72917 7.45608 5.70087 7.52492 5.64429 7.5815C5.58771 7.63828 5.51897 7.66667 5.43808 7.66667Z" fill="black"/>
<circle cx="5.5" cy="5.5" r="5" stroke="black"/>
</svg>
