<svg width="33" height="34" viewBox="0 0 33 34" fill="none" xmlns="http://www.w3.org/2000/svg">
<circle cx="16.5" cy="16.5" r="11" fill="white" stroke="#E9EAEC"/>
<path d="M16.5 12.6406C16.7848 12.6406 17.0156 12.3678 17.0156 12.0312C17.0156 11.6947 16.7848 11.4219 16.5 11.4219C16.2152 11.4219 15.9844 11.6947 15.9844 12.0312C15.9844 12.3678 16.2152 12.6406 16.5 12.6406Z" stroke="black" stroke-width="1.5" stroke-linecap="round" stroke-linejoin="round"/>
<path d="M16.5 17.1094C16.7848 17.1094 17.0156 16.8365 17.0156 16.5C17.0156 16.1635 16.7848 15.8906 16.5 15.8906C16.2152 15.8906 15.9844 16.1635 15.9844 16.5C15.9844 16.8365 16.2152 17.1094 16.5 17.1094Z" stroke="black" stroke-width="1.5" stroke-linecap="round" stroke-linejoin="round"/>
<path d="M16.5 21.5781C16.7848 21.5781 17.0156 21.3053 17.0156 20.9688C17.0156 20.6322 16.7848 20.3594 16.5 20.3594C16.2152 20.3594 15.9844 20.6322 15.9844 20.9688C15.9844 21.3053 16.2152 21.5781 16.5 21.5781Z" stroke="black" stroke-width="1.5" stroke-linecap="round" stroke-linejoin="round"/>
</svg>
