<svg width="28" height="28" viewBox="0 0 28 28" fill="none" xmlns="http://www.w3.org/2000/svg">
<g clip-path="url(#clip0_54_129)">
<path fill-rule="evenodd" clip-rule="evenodd" d="M13.9999 2.33325C7.55642 2.33325 2.33325 7.55642 2.33325 13.9999C2.33325 20.4434 7.55642 25.6666 13.9999 25.6666C20.4434 25.6666 25.6666 20.4434 25.6666 13.9999C25.6666 7.55642 20.4434 2.33325 13.9999 2.33325ZM9.91659 11.0833C9.91659 10.547 10.0222 10.016 10.2274 9.52063C10.4326 9.02522 10.7334 8.57507 11.1126 8.1959C11.4917 7.81673 11.9419 7.51595 12.4373 7.31074C12.9327 7.10554 13.4637 6.99992 13.9999 6.99992C14.5361 6.99992 15.0671 7.10554 15.5625 7.31074C16.058 7.51595 16.5081 7.81673 16.8873 8.1959C17.2664 8.57507 17.5672 9.02522 17.7724 9.52063C17.9776 10.016 18.0833 10.547 18.0833 11.0833C18.0833 12.1662 17.653 13.2048 16.8873 13.9706C16.1215 14.7364 15.0829 15.1666 13.9999 15.1666C12.917 15.1666 11.8783 14.7364 11.1126 13.9706C10.3468 13.2048 9.91659 12.1662 9.91659 11.0833ZM21.3009 19.8146C20.4273 20.9128 19.317 21.7997 18.0528 22.4089C16.7887 23.0182 15.4032 23.3341 13.9999 23.3333C12.5966 23.3341 11.2112 23.0182 9.947 22.4089C8.68283 21.7997 7.57253 20.9128 6.69892 19.8146C8.59009 18.4578 11.1708 17.4999 13.9999 17.4999C16.8291 17.4999 19.4098 18.4578 21.3009 19.8146Z" fill="black"/>
</g>
<defs>
<clipPath id="clip0_54_129">
<rect width="28" height="28" fill="white"/>
</clipPath>
</defs>
</svg>
