<svg width="34" height="34" viewBox="0 0 34 34" fill="none" xmlns="http://www.w3.org/2000/svg">
<g clip-path="url(#clip0_54_128)">
<path fill-rule="evenodd" clip-rule="evenodd" d="M16.9999 5.33325C10.5564 5.33325 5.33325 10.5564 5.33325 16.9999C5.33325 23.4434 10.5564 28.6666 16.9999 28.6666C23.4434 28.6666 28.6666 23.4434 28.6666 16.9999C28.6666 10.5564 23.4434 5.33325 16.9999 5.33325ZM12.9166 14.0833C12.9166 13.547 13.0222 13.016 13.2274 12.5206C13.4326 12.0252 13.7334 11.5751 14.1126 11.1959C14.4917 10.8167 14.9419 10.516 15.4373 10.3107C15.9327 10.1055 16.4637 9.99992 16.9999 9.99992C17.5361 9.99992 18.0671 10.1055 18.5625 10.3107C19.058 10.516 19.5081 10.8167 19.8873 11.1959C20.2664 11.5751 20.5672 12.0252 20.7724 12.5206C20.9776 13.016 21.0833 13.547 21.0833 14.0833C21.0833 15.1662 20.653 16.2048 19.8873 16.9706C19.1215 17.7364 18.0829 18.1666 16.9999 18.1666C15.917 18.1666 14.8783 17.7364 14.1126 16.9706C13.3468 16.2048 12.9166 15.1662 12.9166 14.0833ZM24.3009 22.8146C23.4273 23.9128 22.317 24.7997 21.0528 25.4089C19.7887 26.0182 18.4032 26.3341 16.9999 26.3333C15.5966 26.3341 14.2112 26.0182 12.947 25.4089C11.6828 24.7997 10.5725 23.9128 9.69892 22.8146C11.5901 21.4578 14.1708 20.4999 16.9999 20.4999C19.8291 20.4999 22.4098 21.4578 24.3009 22.8146Z" fill="black"/>
</g>
<defs>
<clipPath id="clip0_54_128">
<rect width="28" height="28" fill="white" transform="translate(3 3)"/>
</clipPath>
</defs>
</svg>
