<svg width="43" height="43" viewBox="0 0 43 43" fill="none" xmlns="http://www.w3.org/2000/svg">
<path d="M9.99768 9.99749C10.3756 9.62003 10.8879 9.40801 11.4221 9.40801C11.9562 9.40801 12.4685 9.62003 12.8464 9.99749L21.5002 18.6512L30.1539 9.99749C30.4003 9.73217 30.7137 9.5382 31.061 9.43604C31.4084 9.33388 31.7769 9.3273 32.1276 9.41699C32.4784 9.50668 32.7985 9.68932 33.0542 9.94567C33.3099 10.202 33.4917 10.5226 33.5805 10.8736C33.67 11.224 33.6636 11.592 33.5619 11.9391C33.4603 12.2862 33.2671 12.5995 33.0027 12.8462L24.3489 21.5L33.0027 30.1537C33.268 30.4001 33.462 30.7135 33.5641 31.0608C33.6663 31.4082 33.6729 31.7767 33.5832 32.1275C33.4935 32.4782 33.3108 32.7983 33.0545 33.054C32.7981 33.3097 32.4776 33.4915 32.1266 33.5803C31.7762 33.6698 31.4081 33.6634 31.0611 33.5617C30.714 33.4601 30.4007 33.2669 30.1539 33.0025L21.5002 24.3487L12.8464 33.0025C12.4644 33.359 11.9589 33.5532 11.4365 33.5441C10.914 33.5351 10.4155 33.3236 10.0461 32.9541C9.6766 32.5846 9.46505 32.0861 9.45603 31.5637C9.447 31.0413 9.6412 30.5358 9.99768 30.1537L18.6514 21.5L9.99768 12.8462C9.62022 12.4683 9.4082 11.956 9.4082 11.4219C9.4082 10.8877 9.62022 10.3754 9.99768 9.99749Z" fill="black"/>
</svg>
